<svg width="24.000000" height="24.000000" viewBox="0 0 24 24" fill="none" xmlns="http://www.w3.org/2000/svg" xmlns:xlink="http://www.w3.org/1999/xlink">
	<desc>
			Created with Pixso.
	</desc>
	<defs>
		<clipPath id="clip21_980">
			<rect id="city_icon" rx="0.000000" width="23.000000" height="23.000000" transform="translate(0.500000 0.500000)" fill="white" fill-opacity="0"/>
		</clipPath>
	</defs>
	<rect id="city_icon" rx="0.000000" width="23.000000" height="23.000000" transform="translate(0.500000 0.500000)" fill="#FFFFFF" fill-opacity="0"/>
	<g clip-path="url(#clip21_980)">
		<path id="Vector" d="M11.99 1.33C9.92 1.33 7.93 2.15 6.46 3.62C4.98 5.08 4.15 7.07 4.14 9.15C4.14 12.26 5.89 14.87 7.17 16.77L7.4 17.12C8.68 18.96 10.04 20.74 11.49 22.45L12 23.04L12.51 22.45C13.96 20.74 15.33 18.96 16.6 17.12L16.83 16.76C18.11 14.86 19.85 12.26 19.85 9.15C19.84 7.07 19.01 5.08 17.54 3.62C16.07 2.15 14.07 1.33 11.99 1.33ZM11.99 12.66C11.13 12.66 10.28 12.41 9.57 11.92C8.85 11.44 8.29 10.76 7.95 9.96C7.62 9.16 7.54 8.28 7.71 7.44C7.87 6.59 8.29 5.81 8.9 5.2C9.51 4.58 10.29 4.17 11.14 4C11.99 3.83 12.87 3.92 13.67 4.25C14.47 4.58 15.15 5.14 15.63 5.86C16.11 6.58 16.37 7.42 16.37 8.29C16.37 9.45 15.91 10.56 15.09 11.38C14.27 12.2 13.15 12.66 11.99 12.66Z" fill="#4EC259" fill-opacity="1.000000" fill-rule="nonzero"/>
		<path id="Vector" d="M14.48 8.29C14.48 9.66 13.37 10.78 11.99 10.78C10.62 10.78 9.51 9.66 9.51 8.29C9.51 6.91 10.62 5.8 11.99 5.8C13.37 5.8 14.48 6.91 14.48 8.29Z" fill="#4EC259" fill-opacity="1.000000" fill-rule="evenodd"/>
	</g>
</svg>
