<svg width="24.000000" height="24.000000" viewBox="0 0 24 24" fill="none" xmlns="http://www.w3.org/2000/svg" xmlns:xlink="http://www.w3.org/1999/xlink">
	<desc>
			Created with Pixso.
	</desc>
	<defs>
		<clipPath id="clip1_1040">
			<rect id="icon" rx="0.000000" width="23.000000" height="23.000000" transform="translate(0.500000 0.500000)" fill="white" fill-opacity="0"/>
		</clipPath>
	</defs>
	<rect id="icon" rx="0.000000" width="23.000000" height="23.000000" transform="translate(0.500000 0.500000)" fill="#FFFFFF" fill-opacity="0"/>
	<g clip-path="url(#clip1_1040)">
		<path id="Vector" d="M22.53 10.32L22.53 8.99C22.53 6.58 21.44 4.33 19.47 2.63C17.5 0.93 14.87 0 12.08 0C9.29 0 6.67 0.93 4.69 2.63C2.72 4.33 1.63 6.58 1.63 8.99L1.63 10.32L1.55 10.32C1.14 10.32 0.74 10.46 0.45 10.71C0.16 10.96 0 11.31 0 11.66L0 16.86C0 17.22 0.16 17.56 0.45 17.81C0.74 18.06 1.14 18.2 1.55 18.2L2.07 18.2C2.38 18.2 2.68 18.12 2.93 17.98C2.96 18.32 3.14 18.65 3.44 18.88C3.74 19.12 4.13 19.24 4.53 19.23C4.93 19.22 5.32 19.08 5.6 18.83C5.88 18.58 6.04 18.25 6.04 17.9L6.04 10.62C6.04 10.27 5.88 9.94 5.6 9.69C5.32 9.44 4.93 9.3 4.53 9.29C4.13 9.28 3.74 9.4 3.44 9.64C3.14 9.87 2.96 10.2 2.93 10.54C2.75 10.44 2.55 10.37 2.33 10.34L2.33 8.99C2.33 4.36 6.71 0.6 12.08 0.6C17.46 0.6 21.83 4.36 21.83 8.99L21.83 10.32C21.55 10.34 21.29 10.41 21.06 10.54C21.03 10.2 20.85 9.87 20.55 9.64C20.26 9.4 19.86 9.28 19.46 9.29C19.05 9.3 18.67 9.44 18.39 9.69C18.11 9.94 17.95 10.27 17.95 10.62L17.95 17.9C17.95 18.19 18.05 18.47 18.25 18.7C18.45 18.93 18.73 19.1 19.05 19.18C18.84 19.65 18.54 20.09 18.16 20.48C17.17 21.46 15.77 21.99 13.98 22.05C13.97 21.69 13.79 21.36 13.49 21.11C13.19 20.86 12.79 20.72 12.38 20.72L10.92 20.72C10.5 20.72 10.09 20.87 9.79 21.13C9.49 21.38 9.32 21.74 9.32 22.1L9.32 22.61C9.32 22.98 9.49 23.33 9.79 23.59C10.09 23.85 10.5 23.99 10.92 24L12.38 24C12.79 23.99 13.2 23.85 13.5 23.6C13.8 23.35 13.97 23.01 13.98 22.65C16.49 22.57 17.93 21.63 18.71 20.84C19.18 20.37 19.54 19.81 19.77 19.22C20.12 19.17 20.43 19.02 20.67 18.79C20.9 18.56 21.04 18.28 21.06 17.98C21.31 18.12 21.61 18.2 21.92 18.2L22.44 18.2C22.85 18.2 23.25 18.06 23.54 17.81C23.83 17.56 24 17.22 24 16.86L24 11.66C24 11.32 23.84 10.99 23.57 10.74C23.3 10.49 22.93 10.34 22.53 10.32Z" fill="#4EC259" fill-opacity="1.000000" fill-rule="nonzero"/>
	</g>
</svg>
