<svg width="24.000000" height="24.000000" viewBox="0 0 24 24" fill="none" xmlns="http://www.w3.org/2000/svg" xmlns:xlink="http://www.w3.org/1999/xlink">
	<desc>
			Created with Pixso.
	</desc>
	<defs>
		<clipPath id="clip1_1056">
			<rect id="icon" rx="0.000000" width="23.000000" height="23.000000" transform="translate(0.500000 0.500000)" fill="white" fill-opacity="0"/>
		</clipPath>
	</defs>
	<rect id="icon" rx="0.000000" width="23.000000" height="23.000000" transform="translate(0.500000 0.500000)" fill="#FFFFFF" fill-opacity="0"/>
	<g clip-path="url(#clip1_1056)">
		<path id="Vector" d="M21.55 4C21.46 3.99 21.37 3.99 21.27 4L2.61 4C2.49 4 2.37 4.01 2.25 4.05L11.89 13.64L21.55 4Z" fill="#4EC259" fill-opacity="1.000000" fill-rule="nonzero"/>
		<path id="Vector" d="M22.53 4.92L12.83 14.59C12.58 14.84 12.24 14.98 11.89 14.98C11.54 14.98 11.2 14.84 10.95 14.59L1.33 4.99C1.3 5.1 1.28 5.22 1.28 5.33L1.28 18.66C1.28 19.02 1.42 19.35 1.67 19.6C1.92 19.85 2.26 19.99 2.61 19.99L21.28 19.99C21.64 19.99 21.97 19.85 22.22 19.6C22.47 19.35 22.61 19.02 22.61 18.66L22.61 5.33C22.61 5.19 22.58 5.05 22.53 4.92ZM3.53 18.66L2.6 18.66L2.6 17.71L7.45 12.9L8.39 13.84L3.53 18.66ZM21.27 18.66L20.33 18.66L15.47 13.84L16.41 12.9L21.26 17.71L21.27 18.66Z" fill="#4EC259" fill-opacity="1.000000" fill-rule="nonzero"/>
	</g>
</svg>
