<svg width="24.000000" height="24.000000" viewBox="0 0 24 24" fill="none" xmlns="http://www.w3.org/2000/svg" xmlns:xlink="http://www.w3.org/1999/xlink">
	<desc>
			Created with Pixso.
	</desc>
	<defs>
		<clipPath id="clip13_272">
			<rect id="person" rx="0.000000" width="23.000000" height="23.000000" transform="translate(0.500000 0.500000)" fill="white" fill-opacity="0"/>
		</clipPath>
	</defs>
	<rect id="person" rx="0.000000" width="23.000000" height="23.000000" transform="translate(0.500000 0.500000)" fill="#FFFFFF" fill-opacity="0"/>
	<g clip-path="url(#clip13_272)">
		<path id="Vector" d="M11.73 12C8.97 12 6.73 9.76 6.73 7C6.73 4.23 8.97 2 11.73 2C14.49 2 16.73 4.23 16.73 7C16.73 9.76 14.49 12 11.73 12Z" stroke="#868686" stroke-opacity="1.000000" stroke-width="2.000000"/>
		<path id="Vector" d="M16.73 14L17.08 14C17.81 14 18.52 14.26 19.07 14.75C19.61 15.23 19.97 15.9 20.06 16.62L20.45 19.75C20.48 20.03 20.46 20.31 20.37 20.59C20.29 20.86 20.15 21.11 19.96 21.32C19.78 21.53 19.54 21.7 19.29 21.82C19.03 21.93 18.75 22 18.46 22L5 22C4.71 22 4.43 21.93 4.17 21.82C3.91 21.7 3.68 21.53 3.5 21.32C3.31 21.11 3.17 20.86 3.08 20.59C3 20.31 2.98 20.03 3.01 19.75L3.4 16.62C3.49 15.9 3.84 15.23 4.39 14.75C4.94 14.26 5.65 13.99 6.38 14L6.73 14" stroke="#868686" stroke-opacity="1.000000" stroke-width="2.000000" stroke-linejoin="round" stroke-linecap="round"/>
	</g>
</svg>
