<svg width="18.749908" height="18.752350" viewBox="0 0 18.7499 18.7523" fill="none" xmlns="http://www.w3.org/2000/svg" xmlns:xlink="http://www.w3.org/1999/xlink">
	<desc>
			Created with Pixso.
	</desc>
	<defs/>
	<path id="Vector" d="M0.81 2.96L3.31 0.47C3.61 0.17 4.02 0 4.45 0C4.88 0 5.29 0.16 5.6 0.47L8.28 3.15C8.59 3.46 8.76 3.87 8.76 4.3C8.76 4.73 8.59 5.14 8.28 5.45L6.18 7.55C6.66 8.66 7.35 9.68 8.21 10.53C9.07 11.4 10.08 12.08 11.19 12.56L13.29 10.46C13.6 10.16 14 9.98 14.43 9.98C14.65 9.98 14.86 10.02 15.05 10.11C15.25 10.19 15.43 10.31 15.58 10.46L18.27 13.14C18.57 13.45 18.74 13.86 18.74 14.29C18.74 14.72 18.58 15.13 18.27 15.44L15.78 17.93C15.26 18.45 14.54 18.75 13.8 18.75C13.65 18.75 13.5 18.74 13.35 18.71C10.25 18.2 7.17 16.55 4.68 14.06C2.2 11.57 0.55 8.49 0.03 5.39C-0.12 4.51 0.18 3.6 0.81 2.96ZM1.69 5.11C2.15 7.87 3.64 10.63 5.88 12.87C8.11 15.11 10.87 16.59 13.63 17.05C13.98 17.11 14.33 16.99 14.59 16.74L17.04 14.29L14.44 11.69L11.63 14.5L11.61 14.52L11.1 14.34C9.57 13.77 8.18 12.88 7.02 11.72C5.86 10.57 4.97 9.17 4.41 7.64L4.22 7.13L7.05 4.3L4.46 1.7L2.01 4.15C1.75 4.41 1.64 4.76 1.69 5.11Z" fill="#868686" fill-opacity="1.000000" fill-rule="nonzero"/>
</svg>
