<svg width="17.814545" height="17.814697" viewBox="0 0 17.8145 17.8147" fill="none" xmlns="http://www.w3.org/2000/svg" xmlns:xlink="http://www.w3.org/1999/xlink">
	<desc>
			Created with Pixso.
	</desc>
	<defs/>
	<path id="Vector" d="M17.48 13.95L13.42 10.25C13.23 10.08 12.97 9.99 12.71 9.99C12.45 10 12.21 10.11 12.03 10.3L9.63 12.76C9.06 12.65 7.9 12.29 6.71 11.1C5.52 9.9 5.15 8.74 5.05 8.17L7.51 5.78C7.69 5.6 7.8 5.35 7.81 5.09C7.82 4.83 7.72 4.58 7.55 4.39L3.85 0.32C3.68 0.13 3.44 0.01 3.18 0C2.92 -0.02 2.66 0.07 2.46 0.24L0.29 2.1C0.12 2.27 0.02 2.5 0 2.75C-0.01 3 -0.3 8.92 4.29 13.51C8.3 17.52 13.32 17.81 14.7 17.81C14.9 17.81 15.03 17.8 15.06 17.8C15.3 17.79 15.53 17.68 15.71 17.51L17.57 15.34C17.74 15.14 17.82 14.89 17.81 14.63C17.79 14.37 17.68 14.12 17.48 13.95Z" fill="#4EC259" fill-opacity="1.000000" fill-rule="nonzero"/>
</svg>
